<svg enable-background="new 0 0 512 512" viewBox="0 0 512 512" xmlns="http://www.w3.org/2000/svg"><path d="m371.342 210.903 97.867-60.228-89.422-55.027-97.865 60.226z" fill="#ffd102"/><path d="m127.994 210.903 97.869-60.228-89.423-55.027-97.864 60.226z" fill="#ffd102"/><path d="m383.997 197.691-128.005-78.77-127.998 78.77-127.994-78.77 22.505 263.672h466.99l22.505-263.672z" fill="#ffe368"/><g fill="#ffaa0e"><circle cx="99.947" cy="320.636" r="8.44"/><circle cx="66.184" cy="286.878" r="8.44"/><path d="m489.495 371.341h-466.99c-12.429 0-22.505 10.075-22.505 22.505s10.076 22.505 22.505 22.505h466.989c12.43 0 22.505-10.076 22.505-22.505.001-12.43-10.075-22.505-22.504-22.505z"/></g></svg>