<svg enable-background="new 0 0 246 246" viewBox="0 0 246 246" xmlns="http://www.w3.org/2000/svg"><path d="m210.917 238.5c0 4.142-3.358 7.5-7.5 7.5h-163c-4.142 0-7.5-3.358-7.5-7.5v-16c0-4.142 3.358-7.5 7.5-7.5h163c4.142 0 7.5 3.358 7.5 7.5zm33.085-235.813c-1.425-1.703-3.532-2.687-5.752-2.687h-32.5c-3.578 0-6.658 2.528-7.356 6.038l-15.301 76.962h-20.725l-15.771-77.005c-.714-3.489-3.785-5.995-7.347-5.995h-32.5c-3.578 0-6.658 2.528-7.356 6.038l-15.301 76.962h-20.724l-15.772-77.005c-.714-3.489-3.785-5.995-7.347-5.995h-32.5c-2.218 0-4.323.981-5.747 2.682-1.426 1.699-2.025 3.943-1.638 6.127l32.25 182c.635 3.582 3.748 6.191 7.385 6.191h.022l165.75-.5c3.624-.011 6.722-2.611 7.36-6.178l32.5-181.5c.392-2.185-.205-4.432-1.63-6.135z"/></svg>